<svg xmlns="http://www.w3.org/2000/svg" xmlns:xlink="http://www.w3.org/1999/xlink" version="1.1" id="Layer_1" x="0px" y="0px" enable-background="new 0 0 432 432" xml:space="preserve" viewBox="2.6 77.6 426 273">
<g>
	<g id="Outer_pitch_green">
		<g enable-background="new    ">
			<g>
				<g>
					<defs>
						<polygon id="SVGID_1_" points="3.4,350.6 80.5,92.8 351.5,92.8 428.6,350.6       "/>
					</defs>
					<clipPath id="SVGID_2_">
						<use xlink:href="#SVGID_1_" overflow="visible"/>
					</clipPath>
					<g clip-path="url(#SVGID_2_)">
						<polyline fill="#01BA5C" points="350.8,92.8 79.7,92.8 2.6,350.6 427.9,350.6 350.8,92.8       "/>
					</g>
				</g>
			</g>
		</g>
	</g>
	<path fill="#00AE55" d="M82.7,103.9H349l2.3,10.4l-272.1,1.5L82.7,103.9z M73.6,137l283.9-1.5l-2.4-10.4H77.3L73.6,137z M67.3,158   l296.2-1.5L361,146H71.1L67.3,158z M61.3,179l308.7-1.5l-2.6-10.4H65.3L61.3,179z M55,200.1l319.9-1.5l-2.7-10.4h-314L55,200.1z    M48.8,221.1l333.3-1.5l-2.8-10.4H52.1L48.8,221.1z M42.5,242.1l345.6-1.5l-2.9-10.4H46L42.5,242.1z M36.3,263.2l358.1-1.5l-3-10.4   H40.3L36.3,263.2z M30.2,284.2l370.2-1.5l-3.1-10.4H34.1L30.2,284.2z M24.7,305.2l382-1.5l-3.2-10.4H28L24.7,305.2z M17.6,328.2   l395.7-1.5l-3.4-10.4H21.3L17.6,328.2z M11.8,350.6l408.4,0l-3.2-12H15.2L11.8,350.6z"/>
	<polygon fill="none" points="10.3,350.5 82.3,103.9 349,103.9 421,350.5  "/>
	<g>
		<defs>
			<polyline id="SVGID_3_" points="82.3,103.9 10.3,350.5 421,350.5 349,103.9 82.3,103.9    "/>
		</defs>
		<clipPath id="SVGID_4_">
			<use xlink:href="#SVGID_3_" overflow="visible"/>
		</clipPath>
		<path clip-path="url(#SVGID_4_)" fill="#00AE55" d="M215.9,249.3c-9.6,0-18.9,1.5-27.4,4.3c-8.6,2.8-16.5,7-23.4,12.1    c-7,5.3-12.9,11.7-17.4,19c-4.6,7.4-7.7,15.8-8.7,24.8c-0.4,3.6-0.5,7.2-0.3,10.7c0.2,3.6,0.8,7.1,1.7,10.5    c0.9,3.5,2.1,6.9,3.6,10.1c1.5,3.3,3.3,6.5,5.4,9.5h54.7c-2.1-0.5-4.1-1.1-6-1.8c-2-0.7-3.8-1.6-5.7-2.5c-1.8-1-3.5-2-5.2-3.2    c-1.7-1.2-3.2-2.5-4.7-3.8c-2.2-2.1-4.1-4.2-5.7-6.6c-1.6-2.3-2.9-4.7-3.9-7.3c-1-2.5-1.7-5.1-2.1-7.7c-0.4-2.6-0.5-5.3-0.4-8    c0.2-2.7,0.7-5.3,1.4-7.8c0.7-2.5,1.8-4.9,3-7.2c1.3-2.3,2.8-4.5,4.5-6.5c1.7-2,3.7-3.9,5.9-5.6c2.1-1.7,4.4-3.2,6.8-4.5    c2.4-1.3,4.9-2.4,7.5-3.2c2.6-0.9,5.2-1.5,8-2c2.7-0.4,5.5-0.7,8.4-0.7s5.6,0.2,8.4,0.7c2.7,0.4,5.4,1.1,8,2    c2.6,0.9,5.1,2,7.5,3.2c2.4,1.3,4.7,2.8,6.8,4.5c2.2,1.7,4.1,3.6,5.9,5.6c1.7,2,3.3,4.2,4.5,6.5c1.3,2.3,2.3,4.7,3,7.2    c0.7,2.5,1.2,5.1,1.4,7.8c0.2,2.7,0.1,5.3-0.4,8c-0.4,2.6-1.1,5.2-2.1,7.7c-1,2.5-2.3,4.9-3.9,7.3c-1.6,2.3-3.5,4.5-5.7,6.6    c-1.5,1.4-3,2.7-4.7,3.8c-1.7,1.2-3.4,2.2-5.2,3.2c-1.8,1-3.7,1.8-5.7,2.5c-2,0.7-4,1.3-6,1.8h54.7c2.1-3.1,3.9-6.2,5.4-9.5    c1.5-3.3,2.7-6.7,3.6-10.1c0.9-3.4,1.4-6.9,1.7-10.5c0.2-3.5,0.2-7.1-0.3-10.7c-1-9-4.1-17.4-8.7-24.8c-4.5-7.3-10.4-13.7-17.4-19    c-6.9-5.2-14.8-9.3-23.4-12.1C234.8,250.8,225.5,249.3,215.9,249.3"/>
	</g>
	<g id="Pitch_Layers_1_">
		<g id="Pitch_Markings">
			<g enable-background="new    ">
				<defs>
					<polygon id="SVGID_5_" enable-background="new    " points="10.4,350.6 82.5,104.1 349.2,104.1 421.2,350.6      "/>
				</defs>
				<clipPath id="SVGID_6_">
					<use xlink:href="#SVGID_5_" overflow="visible"/>
				</clipPath>
				<g clip-path="url(#SVGID_6_)">
					<g>
						<g>
							<g>
								<defs>
									<polyline id="SVGID_7_" points="82.5,104.1 10.4,350.6 421.2,350.6 349.2,104.1 82.5,104.1          "/>
								</defs>
								<clipPath id="SVGID_8_">
									<use xlink:href="#SVGID_7_" overflow="visible"/>
								</clipPath>
								<path clip-path="url(#SVGID_8_)" fill="#FFFFFF" d="M349.2,104.1H82.5l-72,246.5H12l11.7-40.4h145c-0.2,4.5,0.4,8.8,1.8,13          c1.4,4.2,3.5,8.1,6.3,11.7c2.8,3.6,6.3,6.8,10.2,9.4c4,2.7,8.5,4.8,13.4,6.3h7.3c-5.6-0.9-10.8-2.6-15.5-5.1          c-4.7-2.5-8.7-5.6-12.1-9.2c-3.3-3.6-5.9-7.7-7.6-12.1c-1.7-4.4-2.4-9-2.2-13.8h40.4c0.1,0.5,0.3,1,0.6,1.5          c0.3,0.5,0.7,0.9,1.1,1.2c0.5,0.3,1,0.6,1.6,0.8c0.6,0.2,1.2,0.3,1.9,0.3c0.7,0,1.3-0.1,1.9-0.3c0.6-0.2,1.1-0.5,1.6-0.8          c0.5-0.3,0.8-0.7,1.1-1.2c0.3-0.5,0.5-1,0.6-1.5h40.4c0.2,4.8-0.6,9.5-2.2,13.8c-1.7,4.4-4.2,8.5-7.6,12.1          c-3.3,3.6-7.4,6.8-12,9.2c-4.7,2.5-9.9,4.2-15.5,5.1h7.3c4.9-1.5,9.4-3.6,13.4-6.3c4-2.7,7.4-5.9,10.2-9.4          c2.8-3.5,4.9-7.5,6.3-11.7c1.4-4.1,2-8.5,1.8-13h145l11.7,40.4h1.3L349.2,104.1z M348.5,104.6l1.7,5.8          c-1.3-0.1-2.6-0.3-3.8-0.6c-1.2-0.3-2.3-0.7-3.4-1.3c-1-0.5-1.9-1.1-2.6-1.8c-0.7-0.7-1.2-1.4-1.6-2.1L348.5,104.6          L348.5,104.6z M182.8,104.6H249l0.7,9.7h-67.6L182.8,104.6z M181.6,104.6l-0.8,10.4h70.1l-0.8-10.4h25.6l2.5,19.4H153.5          l2.5-19.4L181.6,104.6L181.6,104.6z M238.8,124.7c-0.9,1.5-2.1,2.8-3.6,4c-1.5,1.2-3.3,2.2-5.3,3.1c-2,0.9-4.2,1.6-6.6,2          c-2.4,0.5-4.9,0.7-7.5,0.7c-2.6,0-5.1-0.3-7.5-0.7c-2.4-0.5-4.6-1.2-6.6-2s-3.8-1.9-5.3-3.1c-1.5-1.2-2.7-2.5-3.6-4          L238.8,124.7L238.8,124.7z M83.3,104.6H93c-0.3,0.8-0.8,1.5-1.6,2.1c-0.7,0.7-1.6,1.3-2.6,1.8s-2.1,0.9-3.4,1.3          c-1.2,0.3-2.5,0.5-3.8,0.6L83.3,104.6z M221,308.8c-0.1-0.5-0.3-1-0.6-1.5c-0.3-0.5-0.7-0.8-1.1-1.2s-1-0.6-1.5-0.8          c-0.6-0.2-1.2-0.3-1.8-0.3s-1.3,0.1-1.8,0.3c-0.6,0.2-1.1,0.5-1.5,0.8s-0.8,0.7-1.1,1.2c-0.3,0.5-0.5,0.9-0.6,1.5h-40.3          c0.5-5.3,2.1-10.2,4.7-14.7c2.5-4.4,6-8.2,10.1-11.5c4.1-3.2,8.8-5.8,14-7.5c5.1-1.8,10.7-2.7,16.6-2.7s11.5,1,16.6,2.7          c5.2,1.8,9.9,4.3,14,7.5c4.1,3.2,7.6,7.1,10.1,11.5c2.6,4.4,4.3,9.4,4.7,14.7H221z M263,308.8c-0.5-5.5-2.2-10.6-4.9-15.2          c-2.7-4.5-6.2-8.5-10.5-11.9c-4.2-3.3-9.1-5.9-14.5-7.7c-5.3-1.8-11.1-2.8-17.2-2.8s-11.9,1-17.2,2.8          c-5.4,1.8-10.3,4.5-14.5,7.7c-4.3,3.3-7.8,7.4-10.5,11.9c-2.7,4.6-4.4,9.7-4.9,15.2H24.1l57.3-197.7          c1.5-0.1,2.9-0.3,4.3-0.7c1.4-0.4,2.6-0.8,3.8-1.4c1.1-0.6,2.1-1.3,2.9-2c0.8-0.7,1.4-1.6,1.7-2.4h60.7l-2.7,20.1h39.5          c0.9,1.6,2.1,3,3.7,4.3c1.6,1.3,3.5,2.4,5.6,3.4c2.1,0.9,4.5,1.7,7,2.2c2.5,0.5,5.2,0.8,8,0.8c2.8,0,5.4-0.3,8-0.8          c2.5-0.5,4.9-1.3,7-2.2c2.1-0.9,4-2.1,5.6-3.4c1.6-1.3,2.8-2.7,3.7-4.3h39.5l-2.7-20.1h60.7c0.3,0.8,0.9,1.7,1.7,2.4          c0.8,0.7,1.8,1.4,2.9,2c1.1,0.6,2.4,1.1,3.8,1.4c1.4,0.4,2.8,0.6,4.3,0.7l57.4,197.7H263z"/>
							</g>
						</g>
					</g>
				</g>
			</g>
		</g>
	</g>
	<g id="Goal_shad_1_" opacity="0.102">
		<g>
			<polygon points="178.9,92.8 184.8,104 247,104 252.9,92.8    "/>
		</g>
	</g>
	<g id="NET_2_">
		<g>
			<g>
				<defs>
					<rect id="SVGID_9_" x="185.9" y="81.9" width="60" height="22.7"/>
				</defs>
				<clipPath id="SVGID_10_">
					<use xlink:href="#SVGID_9_" overflow="visible"/>
				</clipPath>
				<g clip-path="url(#SVGID_10_)">
					<g>
						<g>
							<path fill="#CECECE" d="M186,77.9l1.8,1v1.9l-1.8,1l-1.8-1v-1.9L186,77.9 M186,77.6l-2,1.1v2.2l2,1.1l2-1.1v-2.2L186,77.6         L186,77.6z"/>
						</g>
					</g>
					<g>
						<g>
							<path fill="#CECECE" d="M189.8,77.9l1.8,1v1.9l-1.8,1l-1.8-1v-1.9L189.8,77.9 M189.8,77.6l-2,1.1v2.2l2,1.1l2-1.1v-2.2         L189.8,77.6L189.8,77.6z"/>
						</g>
					</g>
					<g>
						<g>
							<path fill="#CECECE" d="M193.5,77.9l1.8,1v1.9l-1.8,1l-1.8-1v-1.9L193.5,77.9 M193.5,77.6l-2,1.1v2.2l2,1.1l2-1.1v-2.2         L193.5,77.6L193.5,77.6z"/>
						</g>
					</g>
					<g>
						<g>
							<path fill="#CECECE" d="M197.3,77.9l1.8,1v1.9l-1.8,1l-1.8-1v-1.9L197.3,77.9 M197.3,77.6l-2,1.1v2.2l2,1.1l2-1.1v-2.2         L197.3,77.6L197.3,77.6z"/>
						</g>
					</g>
					<g>
						<g>
							<path fill="#CECECE" d="M201,77.9l1.8,1v1.9l-1.8,1l-1.8-1v-1.9L201,77.9 M201,77.6l-2,1.1v2.2l2,1.1l2-1.1v-2.2L201,77.6         L201,77.6z"/>
						</g>
					</g>
					<g>
						<g>
							<path fill="#CECECE" d="M204.8,77.9l1.8,1v1.9l-1.8,1l-1.8-1v-1.9L204.8,77.9 M204.8,77.6l-2,1.1v2.2l2,1.1l2-1.1v-2.2         L204.8,77.6L204.8,77.6z"/>
						</g>
					</g>
					<g>
						<g>
							<path fill="#CECECE" d="M208.5,77.9l1.8,1v1.9l-1.8,1l-1.8-1v-1.9L208.5,77.9 M208.5,77.6l-2,1.1v2.2l2,1.1l2-1.1v-2.2         L208.5,77.6L208.5,77.6z"/>
						</g>
					</g>
					<g>
						<g>
							<path fill="#CECECE" d="M212.3,77.9l1.8,1v1.9l-1.8,1l-1.8-1v-1.9L212.3,77.9 M212.3,77.6l-2,1.1v2.2l2,1.1l2-1.1v-2.2         L212.3,77.6L212.3,77.6z"/>
						</g>
					</g>
					<g>
						<g>
							<path fill="#CECECE" d="M216,77.9l1.8,1v1.9l-1.8,1l-1.8-1v-1.9L216,77.9 M216,77.6l-2,1.1v2.2l2,1.1l2-1.1v-2.2L216,77.6         L216,77.6z"/>
						</g>
					</g>
					<g>
						<g>
							<path fill="#CECECE" d="M219.7,77.9l1.8,1v1.9l-1.8,1l-1.8-1v-1.9L219.7,77.9 M219.7,77.6l-2,1.1v2.2l2,1.1l2-1.1v-2.2         L219.7,77.6L219.7,77.6z"/>
						</g>
					</g>
					<g>
						<g>
							<path fill="#CECECE" d="M223.5,77.9l1.8,1v1.9l-1.8,1l-1.8-1v-1.9L223.5,77.9 M223.5,77.6l-2,1.1v2.2l2,1.1l2-1.1v-2.2         L223.5,77.6L223.5,77.6z"/>
						</g>
					</g>
					<g>
						<g>
							<path fill="#CECECE" d="M227.2,77.9l1.8,1v1.9l-1.8,1l-1.8-1v-1.9L227.2,77.9 M227.2,77.6l-2,1.1v2.2l2,1.1l2-1.1v-2.2         L227.2,77.6L227.2,77.6z"/>
						</g>
					</g>
					<g>
						<g>
							<path fill="#CECECE" d="M231,77.9l1.8,1v1.9l-1.8,1l-1.8-1v-1.9L231,77.9 M231,77.6l-2,1.1v2.2l2,1.1l2-1.1v-2.2L231,77.6         L231,77.6z"/>
						</g>
					</g>
					<g>
						<g>
							<path fill="#CECECE" d="M234.7,77.9l1.8,1v1.9l-1.8,1l-1.8-1v-1.9L234.7,77.9 M234.7,77.6l-2,1.1v2.2l2,1.1l2-1.1v-2.2         L234.7,77.6L234.7,77.6z"/>
						</g>
					</g>
					<g>
						<g>
							<path fill="#CECECE" d="M238.5,77.9l1.8,1v1.9l-1.8,1l-1.8-1v-1.9L238.5,77.9 M238.5,77.6l-2,1.1v2.2l2,1.1l2-1.1v-2.2         L238.5,77.6L238.5,77.6z"/>
						</g>
					</g>
					<g>
						<g>
							<path fill="#CECECE" d="M242.2,77.9l1.8,1v1.9l-1.8,1l-1.8-1v-1.9L242.2,77.9 M242.2,77.6l-2,1.1v2.2l2,1.1l2-1.1v-2.2         L242.2,77.6L242.2,77.6z"/>
						</g>
					</g>
					<g>
						<g>
							<path fill="#CECECE" d="M246,77.9l1.8,1v1.9l-1.8,1l-1.8-1v-1.9L246,77.9 M246,77.6l-2,1.1v2.2l2,1.1l2-1.1v-2.2L246,77.6         L246,77.6z"/>
						</g>
					</g>
					<g>
						<g>
							<path fill="#CECECE" d="M249.7,77.9l1.8,1v1.9l-1.8,1l-1.8-1v-1.9L249.7,77.9 M249.7,77.6l-2,1.1v2.2l2,1.1l2-1.1v-2.2         L249.7,77.6L249.7,77.6z"/>
						</g>
					</g>
					<g>
						<g>
							<path fill="#CECECE" d="M253.5,77.9l1.8,1v1.9l-1.8,1l-1.8-1v-1.9L253.5,77.9 M253.5,77.6l-2,1.1v2.2l2,1.1l2-1.1v-2.2         L253.5,77.6L253.5,77.6z"/>
						</g>
					</g>
					<g>
						<g>
							<path fill="#CECECE" d="M257.2,77.9l1.8,1v1.9l-1.8,1l-1.8-1v-1.9L257.2,77.9 M257.2,77.6l-2,1.1v2.2l2,1.1l2-1.1v-2.2         L257.2,77.6L257.2,77.6z"/>
						</g>
					</g>
				</g>
			</g>
		</g>
		<g>
			<g>
				<defs>
					<rect id="SVGID_11_" x="185.9" y="81.9" width="60" height="22.7"/>
				</defs>
				<clipPath id="SVGID_12_">
					<use xlink:href="#SVGID_11_" overflow="visible"/>
				</clipPath>
				<g clip-path="url(#SVGID_12_)">
					<g>
						<g>
							<path fill="#CECECE" d="M187.9,81l1.8,1v1.9l-1.8,1l-1.8-1V82L187.9,81 M187.9,80.8l-2,1.1v2.2l2,1.1l2-1.1v-2.2L187.9,80.8         L187.9,80.8z"/>
						</g>
					</g>
					<g>
						<g>
							<path fill="#CECECE" d="M191.6,81l1.8,1v1.9l-1.8,1l-1.8-1V82L191.6,81 M191.6,80.8l-2,1.1v2.2l2,1.1l2-1.1v-2.2L191.6,80.8         L191.6,80.8z"/>
						</g>
					</g>
					<g>
						<g>
							<path fill="#CECECE" d="M195.4,81l1.8,1v1.9l-1.8,1l-1.8-1V82L195.4,81 M195.4,80.8l-2,1.1v2.2l2,1.1l2-1.1v-2.2L195.4,80.8         L195.4,80.8z"/>
						</g>
					</g>
					<g>
						<g>
							<path fill="#CECECE" d="M199.1,81l1.8,1v1.9l-1.8,1l-1.8-1V82L199.1,81 M199.1,80.8l-2,1.1v2.2l2,1.1l2-1.1v-2.2L199.1,80.8         L199.1,80.8z"/>
						</g>
					</g>
					<g>
						<g>
							<path fill="#CECECE" d="M202.9,81l1.8,1v1.9l-1.8,1l-1.8-1V82L202.9,81 M202.9,80.8l-2,1.1v2.2l2,1.1l2-1.1v-2.2L202.9,80.8         L202.9,80.8z"/>
						</g>
					</g>
					<g>
						<g>
							<path fill="#CECECE" d="M206.6,81l1.8,1v1.9l-1.8,1l-1.8-1V82L206.6,81 M206.6,80.8l-2,1.1v2.2l2,1.1l2-1.1v-2.2L206.6,80.8         L206.6,80.8z"/>
						</g>
					</g>
					<g>
						<g>
							<path fill="#CECECE" d="M210.4,81l1.8,1v1.9l-1.8,1l-1.8-1V82L210.4,81 M210.4,80.8l-2,1.1v2.2l2,1.1l2-1.1v-2.2L210.4,80.8         L210.4,80.8z"/>
						</g>
					</g>
					<g>
						<g>
							<path fill="#CECECE" d="M214.1,81l1.8,1v1.9l-1.8,1l-1.8-1V82L214.1,81 M214.1,80.8l-2,1.1v2.2l2,1.1l2-1.1v-2.2L214.1,80.8         L214.1,80.8z"/>
						</g>
					</g>
					<g>
						<g>
							<path fill="#CECECE" d="M217.9,81l1.8,1v1.9l-1.8,1l-1.8-1V82L217.9,81 M217.9,80.8l-2,1.1v2.2l2,1.1l2-1.1v-2.2L217.9,80.8         L217.9,80.8z"/>
						</g>
					</g>
					<g>
						<g>
							<path fill="#CECECE" d="M221.6,81l1.8,1v1.9l-1.8,1l-1.8-1V82L221.6,81 M221.6,80.8l-2,1.1v2.2l2,1.1l2-1.1v-2.2L221.6,80.8         L221.6,80.8z"/>
						</g>
					</g>
					<g>
						<g>
							<path fill="#CECECE" d="M225.4,81l1.8,1v1.9l-1.8,1l-1.8-1V82L225.4,81 M225.4,80.8l-2,1.1v2.2l2,1.1l2-1.1v-2.2L225.4,80.8         L225.4,80.8z"/>
						</g>
					</g>
					<g>
						<g>
							<path fill="#CECECE" d="M229.1,81l1.8,1v1.9l-1.8,1l-1.8-1V82L229.1,81 M229.1,80.8l-2,1.1v2.2l2,1.1l2-1.1v-2.2L229.1,80.8         L229.1,80.8z"/>
						</g>
					</g>
					<g>
						<g>
							<path fill="#CECECE" d="M232.9,81l1.8,1v1.9l-1.8,1l-1.8-1V82L232.9,81 M232.9,80.8l-2,1.1v2.2l2,1.1l2-1.1v-2.2L232.9,80.8         L232.9,80.8z"/>
						</g>
					</g>
					<g>
						<g>
							<path fill="#CECECE" d="M236.6,81l1.8,1v1.9l-1.8,1l-1.8-1V82L236.6,81 M236.6,80.8l-2,1.1v2.2l2,1.1l2-1.1v-2.2L236.6,80.8         L236.6,80.8z"/>
						</g>
					</g>
					<g>
						<g>
							<path fill="#CECECE" d="M240.4,81l1.8,1v1.9l-1.8,1l-1.8-1V82L240.4,81 M240.4,80.8l-2,1.1v2.2l2,1.1l2-1.1v-2.2L240.4,80.8         L240.4,80.8z"/>
						</g>
					</g>
					<g>
						<g>
							<path fill="#CECECE" d="M244.1,81l1.8,1v1.9l-1.8,1l-1.8-1V82L244.1,81 M244.1,80.8l-2,1.1v2.2l2,1.1l2-1.1v-2.2L244.1,80.8         L244.1,80.8z"/>
						</g>
					</g>
					<g>
						<g>
							<path fill="#CECECE" d="M247.8,81l1.8,1v1.9l-1.8,1l-1.8-1V82L247.8,81 M247.8,80.8l-2,1.1v2.2l2,1.1l2-1.1v-2.2L247.8,80.8         L247.8,80.8z"/>
						</g>
					</g>
					<g>
						<g>
							<path fill="#CECECE" d="M251.6,81l1.8,1v1.9l-1.8,1l-1.8-1V82L251.6,81 M251.6,80.8l-2,1.1v2.2l2,1.1l2-1.1v-2.2L251.6,80.8         L251.6,80.8z"/>
						</g>
					</g>
					<g>
						<g>
							<path fill="#CECECE" d="M255.3,81l1.8,1v1.9l-1.8,1l-1.8-1V82L255.3,81 M255.3,80.8l-2,1.1v2.2l2,1.1l2-1.1v-2.2L255.3,80.8         L255.3,80.8z"/>
						</g>
					</g>
					<g>
						<g>
							<path fill="#CECECE" d="M259.1,81l1.8,1v1.9l-1.8,1l-1.8-1V82L259.1,81 M259.1,80.8l-2,1.1v2.2l2,1.1l2-1.1v-2.2L259.1,80.8         L259.1,80.8z"/>
						</g>
					</g>
				</g>
			</g>
		</g>
		<g>
			<g>
				<defs>
					<rect id="SVGID_13_" x="185.9" y="81.9" width="60" height="22.7"/>
				</defs>
				<clipPath id="SVGID_14_">
					<use xlink:href="#SVGID_13_" overflow="visible"/>
				</clipPath>
				<g clip-path="url(#SVGID_14_)">
					<g>
						<g>
							<path fill="#CECECE" d="M186,84.2l1.8,1v1.9l-1.8,1l-1.8-1v-1.9L186,84.2 M186,84l-2,1.1v2.2l2,1.1l2-1.1v-2.2L186,84L186,84         z"/>
						</g>
					</g>
					<g>
						<g>
							<path fill="#CECECE" d="M189.8,84.2l1.8,1v1.9l-1.8,1l-1.8-1v-1.9L189.8,84.2 M189.8,84l-2,1.1v2.2l2,1.1l2-1.1v-2.2         L189.8,84L189.8,84z"/>
						</g>
					</g>
					<g>
						<g>
							<path fill="#CECECE" d="M193.5,84.2l1.8,1v1.9l-1.8,1l-1.8-1v-1.9L193.5,84.2 M193.5,84l-2,1.1v2.2l2,1.1l2-1.1v-2.2         L193.5,84L193.5,84z"/>
						</g>
					</g>
					<g>
						<g>
							<path fill="#CECECE" d="M197.3,84.2l1.8,1v1.9l-1.8,1l-1.8-1v-1.9L197.3,84.2 M197.3,84l-2,1.1v2.2l2,1.1l2-1.1v-2.2         L197.3,84L197.3,84z"/>
						</g>
					</g>
					<g>
						<g>
							<path fill="#CECECE" d="M201,84.2l1.8,1v1.9l-1.8,1l-1.8-1v-1.9L201,84.2 M201,84l-2,1.1v2.2l2,1.1l2-1.1v-2.2L201,84L201,84         z"/>
						</g>
					</g>
					<g>
						<g>
							<path fill="#CECECE" d="M204.8,84.2l1.8,1v1.9l-1.8,1l-1.8-1v-1.9L204.8,84.2 M204.8,84l-2,1.1v2.2l2,1.1l2-1.1v-2.2         L204.8,84L204.8,84z"/>
						</g>
					</g>
					<g>
						<g>
							<path fill="#CECECE" d="M208.5,84.2l1.8,1v1.9l-1.8,1l-1.8-1v-1.9L208.5,84.2 M208.5,84l-2,1.1v2.2l2,1.1l2-1.1v-2.2         L208.5,84L208.5,84z"/>
						</g>
					</g>
					<g>
						<g>
							<path fill="#CECECE" d="M212.3,84.2l1.8,1v1.9l-1.8,1l-1.8-1v-1.9L212.3,84.2 M212.3,84l-2,1.1v2.2l2,1.1l2-1.1v-2.2         L212.3,84L212.3,84z"/>
						</g>
					</g>
					<g>
						<g>
							<path fill="#CECECE" d="M216,84.2l1.8,1v1.9l-1.8,1l-1.8-1v-1.9L216,84.2 M216,84l-2,1.1v2.2l2,1.1l2-1.1v-2.2L216,84L216,84         z"/>
						</g>
					</g>
					<g>
						<g>
							<path fill="#CECECE" d="M219.7,84.2l1.8,1v1.9l-1.8,1l-1.8-1v-1.9L219.7,84.2 M219.7,84l-2,1.1v2.2l2,1.1l2-1.1v-2.2         L219.7,84L219.7,84z"/>
						</g>
					</g>
					<g>
						<g>
							<path fill="#CECECE" d="M223.5,84.2l1.8,1v1.9l-1.8,1l-1.8-1v-1.9L223.5,84.2 M223.5,84l-2,1.1v2.2l2,1.1l2-1.1v-2.2         L223.5,84L223.5,84z"/>
						</g>
					</g>
					<g>
						<g>
							<path fill="#CECECE" d="M227.2,84.2l1.8,1v1.9l-1.8,1l-1.8-1v-1.9L227.2,84.2 M227.2,84l-2,1.1v2.2l2,1.1l2-1.1v-2.2         L227.2,84L227.2,84z"/>
						</g>
					</g>
					<g>
						<g>
							<path fill="#CECECE" d="M231,84.2l1.8,1v1.9l-1.8,1l-1.8-1v-1.9L231,84.2 M231,84l-2,1.1v2.2l2,1.1l2-1.1v-2.2L231,84L231,84         z"/>
						</g>
					</g>
					<g>
						<g>
							<path fill="#CECECE" d="M234.7,84.2l1.8,1v1.9l-1.8,1l-1.8-1v-1.9L234.7,84.2 M234.7,84l-2,1.1v2.2l2,1.1l2-1.1v-2.2         L234.7,84L234.7,84z"/>
						</g>
					</g>
					<g>
						<g>
							<path fill="#CECECE" d="M238.5,84.2l1.8,1v1.9l-1.8,1l-1.8-1v-1.9L238.5,84.2 M238.5,84l-2,1.1v2.2l2,1.1l2-1.1v-2.2         L238.5,84L238.5,84z"/>
						</g>
					</g>
					<g>
						<g>
							<path fill="#CECECE" d="M242.2,84.2l1.8,1v1.9l-1.8,1l-1.8-1v-1.9L242.2,84.2 M242.2,84l-2,1.1v2.2l2,1.1l2-1.1v-2.2         L242.2,84L242.2,84z"/>
						</g>
					</g>
					<g>
						<g>
							<path fill="#CECECE" d="M246,84.2l1.8,1v1.9l-1.8,1l-1.8-1v-1.9L246,84.2 M246,84l-2,1.1v2.2l2,1.1l2-1.1v-2.2L246,84L246,84         z"/>
						</g>
					</g>
					<g>
						<g>
							<path fill="#CECECE" d="M249.7,84.2l1.8,1v1.9l-1.8,1l-1.8-1v-1.9L249.7,84.2 M249.7,84l-2,1.1v2.2l2,1.1l2-1.1v-2.2         L249.7,84L249.7,84z"/>
						</g>
					</g>
					<g>
						<g>
							<path fill="#CECECE" d="M253.5,84.2l1.8,1v1.9l-1.8,1l-1.8-1v-1.9L253.5,84.2 M253.5,84l-2,1.1v2.2l2,1.1l2-1.1v-2.2         L253.5,84L253.5,84z"/>
						</g>
					</g>
					<g>
						<g>
							<path fill="#CECECE" d="M257.2,84.2l1.8,1v1.9l-1.8,1l-1.8-1v-1.9L257.2,84.2 M257.2,84l-2,1.1v2.2l2,1.1l2-1.1v-2.2         L257.2,84L257.2,84z"/>
						</g>
					</g>
				</g>
			</g>
		</g>
		<g>
			<g>
				<defs>
					<rect id="SVGID_15_" x="185.9" y="81.9" width="60" height="22.7"/>
				</defs>
				<clipPath id="SVGID_16_">
					<use xlink:href="#SVGID_15_" overflow="visible"/>
				</clipPath>
				<g clip-path="url(#SVGID_16_)">
					<g>
						<g>
							<path fill="#CECECE" d="M187.9,87.4l1.8,1v1.9l-1.8,1l-1.8-1v-1.9L187.9,87.4 M187.9,87.2l-2,1.1v2.2l2,1.1l2-1.1v-2.2         L187.9,87.2L187.9,87.2z"/>
						</g>
					</g>
					<g>
						<g>
							<path fill="#CECECE" d="M191.6,87.4l1.8,1v1.9l-1.8,1l-1.8-1v-1.9L191.6,87.4 M191.6,87.2l-2,1.1v2.2l2,1.1l2-1.1v-2.2         L191.6,87.2L191.6,87.2z"/>
						</g>
					</g>
					<g>
						<g>
							<path fill="#CECECE" d="M195.4,87.4l1.8,1v1.9l-1.8,1l-1.8-1v-1.9L195.4,87.4 M195.4,87.2l-2,1.1v2.2l2,1.1l2-1.1v-2.2         L195.4,87.2L195.4,87.2z"/>
						</g>
					</g>
					<g>
						<g>
							<path fill="#CECECE" d="M199.1,87.4l1.8,1v1.9l-1.8,1l-1.8-1v-1.9L199.1,87.4 M199.1,87.2l-2,1.1v2.2l2,1.1l2-1.1v-2.2         L199.1,87.2L199.1,87.2z"/>
						</g>
					</g>
					<g>
						<g>
							<path fill="#CECECE" d="M202.9,87.4l1.8,1v1.9l-1.8,1l-1.8-1v-1.9L202.9,87.4 M202.9,87.2l-2,1.1v2.2l2,1.1l2-1.1v-2.2         L202.9,87.2L202.9,87.2z"/>
						</g>
					</g>
					<g>
						<g>
							<path fill="#CECECE" d="M206.6,87.4l1.8,1v1.9l-1.8,1l-1.8-1v-1.9L206.6,87.4 M206.6,87.2l-2,1.1v2.2l2,1.1l2-1.1v-2.2         L206.6,87.2L206.6,87.2z"/>
						</g>
					</g>
					<g>
						<g>
							<path fill="#CECECE" d="M210.4,87.4l1.8,1v1.9l-1.8,1l-1.8-1v-1.9L210.4,87.4 M210.4,87.2l-2,1.1v2.2l2,1.1l2-1.1v-2.2         L210.4,87.2L210.4,87.2z"/>
						</g>
					</g>
					<g>
						<g>
							<path fill="#CECECE" d="M214.1,87.4l1.8,1v1.9l-1.8,1l-1.8-1v-1.9L214.1,87.4 M214.1,87.2l-2,1.1v2.2l2,1.1l2-1.1v-2.2         L214.1,87.2L214.1,87.2z"/>
						</g>
					</g>
					<g>
						<g>
							<path fill="#CECECE" d="M217.9,87.4l1.8,1v1.9l-1.8,1l-1.8-1v-1.9L217.9,87.4 M217.9,87.2l-2,1.1v2.2l2,1.1l2-1.1v-2.2         L217.9,87.2L217.9,87.2z"/>
						</g>
					</g>
					<g>
						<g>
							<path fill="#CECECE" d="M221.6,87.4l1.8,1v1.9l-1.8,1l-1.8-1v-1.9L221.6,87.4 M221.6,87.2l-2,1.1v2.2l2,1.1l2-1.1v-2.2         L221.6,87.2L221.6,87.2z"/>
						</g>
					</g>
					<g>
						<g>
							<path fill="#CECECE" d="M225.4,87.4l1.8,1v1.9l-1.8,1l-1.8-1v-1.9L225.4,87.4 M225.4,87.2l-2,1.1v2.2l2,1.1l2-1.1v-2.2         L225.4,87.2L225.4,87.2z"/>
						</g>
					</g>
					<g>
						<g>
							<path fill="#CECECE" d="M229.1,87.4l1.8,1v1.9l-1.8,1l-1.8-1v-1.9L229.1,87.4 M229.1,87.2l-2,1.1v2.2l2,1.1l2-1.1v-2.2         L229.1,87.2L229.1,87.2z"/>
						</g>
					</g>
					<g>
						<g>
							<path fill="#CECECE" d="M232.9,87.4l1.8,1v1.9l-1.8,1l-1.8-1v-1.9L232.9,87.4 M232.9,87.2l-2,1.1v2.2l2,1.1l2-1.1v-2.2         L232.9,87.2L232.9,87.2z"/>
						</g>
					</g>
					<g>
						<g>
							<path fill="#CECECE" d="M236.6,87.4l1.8,1v1.9l-1.8,1l-1.8-1v-1.9L236.6,87.4 M236.6,87.2l-2,1.1v2.2l2,1.1l2-1.1v-2.2         L236.6,87.2L236.6,87.2z"/>
						</g>
					</g>
					<g>
						<g>
							<path fill="#CECECE" d="M240.4,87.4l1.8,1v1.9l-1.8,1l-1.8-1v-1.9L240.4,87.4 M240.4,87.2l-2,1.1v2.2l2,1.1l2-1.1v-2.2         L240.4,87.2L240.4,87.2z"/>
						</g>
					</g>
					<g>
						<g>
							<path fill="#CECECE" d="M244.1,87.4l1.8,1v1.9l-1.8,1l-1.8-1v-1.9L244.1,87.4 M244.1,87.2l-2,1.1v2.2l2,1.1l2-1.1v-2.2         L244.1,87.2L244.1,87.2z"/>
						</g>
					</g>
					<g>
						<g>
							<path fill="#CECECE" d="M247.8,87.4l1.8,1v1.9l-1.8,1l-1.8-1v-1.9L247.8,87.4 M247.8,87.2l-2,1.1v2.2l2,1.1l2-1.1v-2.2         L247.8,87.2L247.8,87.2z"/>
						</g>
					</g>
					<g>
						<g>
							<path fill="#CECECE" d="M251.6,87.4l1.8,1v1.9l-1.8,1l-1.8-1v-1.9L251.6,87.4 M251.6,87.2l-2,1.1v2.2l2,1.1l2-1.1v-2.2         L251.6,87.2L251.6,87.2z"/>
						</g>
					</g>
					<g>
						<g>
							<path fill="#CECECE" d="M255.3,87.4l1.8,1v1.9l-1.8,1l-1.8-1v-1.9L255.3,87.4 M255.3,87.2l-2,1.1v2.2l2,1.1l2-1.1v-2.2         L255.3,87.2L255.3,87.2z"/>
						</g>
					</g>
					<g>
						<g>
							<path fill="#CECECE" d="M259.1,87.4l1.8,1v1.9l-1.8,1l-1.8-1v-1.9L259.1,87.4 M259.1,87.2l-2,1.1v2.2l2,1.1l2-1.1v-2.2         L259.1,87.2L259.1,87.2z"/>
						</g>
					</g>
				</g>
			</g>
		</g>
		<g>
			<g>
				<defs>
					<rect id="SVGID_17_" x="185.9" y="81.9" width="60" height="22.7"/>
				</defs>
				<clipPath id="SVGID_18_">
					<use xlink:href="#SVGID_17_" overflow="visible"/>
				</clipPath>
				<g clip-path="url(#SVGID_18_)">
					<g>
						<g>
							<path fill="#CECECE" d="M186,90.6l1.8,1v1.9l-1.8,1l-1.8-1v-1.9L186,90.6 M186,90.4l-2,1.1v2.2l2,1.1l2-1.1v-2.2L186,90.4         L186,90.4z"/>
						</g>
					</g>
					<g>
						<g>
							<path fill="#CECECE" d="M189.8,90.6l1.8,1v1.9l-1.8,1l-1.8-1v-1.9L189.8,90.6 M189.8,90.4l-2,1.1v2.2l2,1.1l2-1.1v-2.2         L189.8,90.4L189.8,90.4z"/>
						</g>
					</g>
					<g>
						<g>
							<path fill="#CECECE" d="M193.5,90.6l1.8,1v1.9l-1.8,1l-1.8-1v-1.9L193.5,90.6 M193.5,90.4l-2,1.1v2.2l2,1.1l2-1.1v-2.2         L193.5,90.4L193.5,90.4z"/>
						</g>
					</g>
					<g>
						<g>
							<path fill="#CECECE" d="M197.3,90.6l1.8,1v1.9l-1.8,1l-1.8-1v-1.9L197.3,90.6 M197.3,90.4l-2,1.1v2.2l2,1.1l2-1.1v-2.2         L197.3,90.4L197.3,90.4z"/>
						</g>
					</g>
					<g>
						<g>
							<path fill="#CECECE" d="M201,90.6l1.8,1v1.9l-1.8,1l-1.8-1v-1.9L201,90.6 M201,90.4l-2,1.1v2.2l2,1.1l2-1.1v-2.2L201,90.4         L201,90.4z"/>
						</g>
					</g>
					<g>
						<g>
							<path fill="#CECECE" d="M204.8,90.6l1.8,1v1.9l-1.8,1l-1.8-1v-1.9L204.8,90.6 M204.8,90.4l-2,1.1v2.2l2,1.1l2-1.1v-2.2         L204.8,90.4L204.8,90.4z"/>
						</g>
					</g>
					<g>
						<g>
							<path fill="#CECECE" d="M208.5,90.6l1.8,1v1.9l-1.8,1l-1.8-1v-1.9L208.5,90.6 M208.5,90.4l-2,1.1v2.2l2,1.1l2-1.1v-2.2         L208.5,90.4L208.5,90.4z"/>
						</g>
					</g>
					<g>
						<g>
							<path fill="#CECECE" d="M212.3,90.6l1.8,1v1.9l-1.8,1l-1.8-1v-1.9L212.3,90.6 M212.3,90.4l-2,1.1v2.2l2,1.1l2-1.1v-2.2         L212.3,90.4L212.3,90.4z"/>
						</g>
					</g>
					<g>
						<g>
							<path fill="#CECECE" d="M216,90.6l1.8,1v1.9l-1.8,1l-1.8-1v-1.9L216,90.6 M216,90.4l-2,1.1v2.2l2,1.1l2-1.1v-2.2L216,90.4         L216,90.4z"/>
						</g>
					</g>
					<g>
						<g>
							<path fill="#CECECE" d="M219.7,90.6l1.8,1v1.9l-1.8,1l-1.8-1v-1.9L219.7,90.6 M219.7,90.4l-2,1.1v2.2l2,1.1l2-1.1v-2.2         L219.7,90.4L219.7,90.4z"/>
						</g>
					</g>
					<g>
						<g>
							<path fill="#CECECE" d="M223.5,90.6l1.8,1v1.9l-1.8,1l-1.8-1v-1.9L223.5,90.6 M223.5,90.4l-2,1.1v2.2l2,1.1l2-1.1v-2.2         L223.5,90.4L223.5,90.4z"/>
						</g>
					</g>
					<g>
						<g>
							<path fill="#CECECE" d="M227.2,90.6l1.8,1v1.9l-1.8,1l-1.8-1v-1.9L227.2,90.6 M227.2,90.4l-2,1.1v2.2l2,1.1l2-1.1v-2.2         L227.2,90.4L227.2,90.4z"/>
						</g>
					</g>
					<g>
						<g>
							<path fill="#CECECE" d="M231,90.6l1.8,1v1.9l-1.8,1l-1.8-1v-1.9L231,90.6 M231,90.4l-2,1.1v2.2l2,1.1l2-1.1v-2.2L231,90.4         L231,90.4z"/>
						</g>
					</g>
					<g>
						<g>
							<path fill="#CECECE" d="M234.7,90.6l1.8,1v1.9l-1.8,1l-1.8-1v-1.9L234.7,90.6 M234.7,90.4l-2,1.1v2.2l2,1.1l2-1.1v-2.2         L234.7,90.4L234.7,90.4z"/>
						</g>
					</g>
					<g>
						<g>
							<path fill="#CECECE" d="M238.5,90.6l1.8,1v1.9l-1.8,1l-1.8-1v-1.9L238.5,90.6 M238.5,90.4l-2,1.1v2.2l2,1.1l2-1.1v-2.2         L238.5,90.4L238.5,90.4z"/>
						</g>
					</g>
					<g>
						<g>
							<path fill="#CECECE" d="M242.2,90.6l1.8,1v1.9l-1.8,1l-1.8-1v-1.9L242.2,90.6 M242.2,90.4l-2,1.1v2.2l2,1.1l2-1.1v-2.2         L242.2,90.4L242.2,90.4z"/>
						</g>
					</g>
					<g>
						<g>
							<path fill="#CECECE" d="M246,90.6l1.8,1v1.9l-1.8,1l-1.8-1v-1.9L246,90.6 M246,90.4l-2,1.1v2.2l2,1.1l2-1.1v-2.2L246,90.4         L246,90.4z"/>
						</g>
					</g>
					<g>
						<g>
							<path fill="#CECECE" d="M249.7,90.6l1.8,1v1.9l-1.8,1l-1.8-1v-1.9L249.7,90.6 M249.7,90.4l-2,1.1v2.2l2,1.1l2-1.1v-2.2         L249.7,90.4L249.7,90.4z"/>
						</g>
					</g>
					<g>
						<g>
							<path fill="#CECECE" d="M253.5,90.6l1.8,1v1.9l-1.8,1l-1.8-1v-1.9L253.5,90.6 M253.5,90.4l-2,1.1v2.2l2,1.1l2-1.1v-2.2         L253.5,90.4L253.5,90.4z"/>
						</g>
					</g>
					<g>
						<g>
							<path fill="#CECECE" d="M257.2,90.6l1.8,1v1.9l-1.8,1l-1.8-1v-1.9L257.2,90.6 M257.2,90.4l-2,1.1v2.2l2,1.1l2-1.1v-2.2         L257.2,90.4L257.2,90.4z"/>
						</g>
					</g>
				</g>
			</g>
		</g>
		<g>
			<g>
				<defs>
					<rect id="SVGID_19_" x="185.9" y="81.9" width="60" height="22.7"/>
				</defs>
				<clipPath id="SVGID_20_">
					<use xlink:href="#SVGID_19_" overflow="visible"/>
				</clipPath>
				<g clip-path="url(#SVGID_20_)">
					<g>
						<g>
							<path fill="#CECECE" d="M187.9,93.8l1.8,1v1.9l-1.8,1l-1.8-1v-1.9L187.9,93.8 M187.9,93.5l-2,1.1v2.2l2,1.1l2-1.1v-2.2         L187.9,93.5L187.9,93.5z"/>
						</g>
					</g>
					<g>
						<g>
							<path fill="#CECECE" d="M191.6,93.8l1.8,1v1.9l-1.8,1l-1.8-1v-1.9L191.6,93.8 M191.6,93.5l-2,1.1v2.2l2,1.1l2-1.1v-2.2         L191.6,93.5L191.6,93.5z"/>
						</g>
					</g>
					<g>
						<g>
							<path fill="#CECECE" d="M195.4,93.8l1.8,1v1.9l-1.8,1l-1.8-1v-1.9L195.4,93.8 M195.4,93.5l-2,1.1v2.2l2,1.1l2-1.1v-2.2         L195.4,93.5L195.4,93.5z"/>
						</g>
					</g>
					<g>
						<g>
							<path fill="#CECECE" d="M199.1,93.8l1.8,1v1.9l-1.8,1l-1.8-1v-1.9L199.1,93.8 M199.1,93.5l-2,1.1v2.2l2,1.1l2-1.1v-2.2         L199.1,93.5L199.1,93.5z"/>
						</g>
					</g>
					<g>
						<g>
							<path fill="#CECECE" d="M202.9,93.8l1.8,1v1.9l-1.8,1l-1.8-1v-1.9L202.9,93.8 M202.9,93.5l-2,1.1v2.2l2,1.1l2-1.1v-2.2         L202.9,93.5L202.9,93.5z"/>
						</g>
					</g>
					<g>
						<g>
							<path fill="#CECECE" d="M206.6,93.8l1.8,1v1.9l-1.8,1l-1.8-1v-1.9L206.6,93.8 M206.6,93.5l-2,1.1v2.2l2,1.1l2-1.1v-2.2         L206.6,93.5L206.6,93.5z"/>
						</g>
					</g>
					<g>
						<g>
							<path fill="#CECECE" d="M210.4,93.8l1.8,1v1.9l-1.8,1l-1.8-1v-1.9L210.4,93.8 M210.4,93.5l-2,1.1v2.2l2,1.1l2-1.1v-2.2         L210.4,93.5L210.4,93.5z"/>
						</g>
					</g>
					<g>
						<g>
							<path fill="#CECECE" d="M214.1,93.8l1.8,1v1.9l-1.8,1l-1.8-1v-1.9L214.1,93.8 M214.1,93.5l-2,1.1v2.2l2,1.1l2-1.1v-2.2         L214.1,93.5L214.1,93.5z"/>
						</g>
					</g>
					<g>
						<g>
							<path fill="#CECECE" d="M217.9,93.8l1.8,1v1.9l-1.8,1l-1.8-1v-1.9L217.9,93.8 M217.9,93.5l-2,1.1v2.2l2,1.1l2-1.1v-2.2         L217.9,93.5L217.9,93.5z"/>
						</g>
					</g>
					<g>
						<g>
							<path fill="#CECECE" d="M221.6,93.8l1.8,1v1.9l-1.8,1l-1.8-1v-1.9L221.6,93.8 M221.6,93.5l-2,1.1v2.2l2,1.1l2-1.1v-2.2         L221.6,93.5L221.6,93.5z"/>
						</g>
					</g>
					<g>
						<g>
							<path fill="#CECECE" d="M225.4,93.8l1.8,1v1.9l-1.8,1l-1.8-1v-1.9L225.4,93.8 M225.4,93.5l-2,1.1v2.2l2,1.1l2-1.1v-2.2         L225.4,93.5L225.4,93.5z"/>
						</g>
					</g>
					<g>
						<g>
							<path fill="#CECECE" d="M229.1,93.8l1.8,1v1.9l-1.8,1l-1.8-1v-1.9L229.1,93.8 M229.1,93.5l-2,1.1v2.2l2,1.1l2-1.1v-2.2         L229.1,93.5L229.1,93.5z"/>
						</g>
					</g>
					<g>
						<g>
							<path fill="#CECECE" d="M232.9,93.8l1.8,1v1.9l-1.8,1l-1.8-1v-1.9L232.9,93.8 M232.9,93.5l-2,1.1v2.2l2,1.1l2-1.1v-2.2         L232.9,93.5L232.9,93.5z"/>
						</g>
					</g>
					<g>
						<g>
							<path fill="#CECECE" d="M236.6,93.8l1.8,1v1.9l-1.8,1l-1.8-1v-1.9L236.6,93.8 M236.6,93.5l-2,1.1v2.2l2,1.1l2-1.1v-2.2         L236.6,93.5L236.6,93.5z"/>
						</g>
					</g>
					<g>
						<g>
							<path fill="#CECECE" d="M240.4,93.8l1.8,1v1.9l-1.8,1l-1.8-1v-1.9L240.4,93.8 M240.4,93.5l-2,1.1v2.2l2,1.1l2-1.1v-2.2         L240.4,93.5L240.4,93.5z"/>
						</g>
					</g>
					<g>
						<g>
							<path fill="#CECECE" d="M244.1,93.8l1.8,1v1.9l-1.8,1l-1.8-1v-1.9L244.1,93.8 M244.1,93.5l-2,1.1v2.2l2,1.1l2-1.1v-2.2         L244.1,93.5L244.1,93.5z"/>
						</g>
					</g>
					<g>
						<g>
							<path fill="#CECECE" d="M247.8,93.8l1.8,1v1.9l-1.8,1l-1.8-1v-1.9L247.8,93.8 M247.8,93.5l-2,1.1v2.2l2,1.1l2-1.1v-2.2         L247.8,93.5L247.8,93.5z"/>
						</g>
					</g>
					<g>
						<g>
							<path fill="#CECECE" d="M251.6,93.8l1.8,1v1.9l-1.8,1l-1.8-1v-1.9L251.6,93.8 M251.6,93.5l-2,1.1v2.2l2,1.1l2-1.1v-2.2         L251.6,93.5L251.6,93.5z"/>
						</g>
					</g>
					<g>
						<g>
							<path fill="#CECECE" d="M255.3,93.8l1.8,1v1.9l-1.8,1l-1.8-1v-1.9L255.3,93.8 M255.3,93.5l-2,1.1v2.2l2,1.1l2-1.1v-2.2         L255.3,93.5L255.3,93.5z"/>
						</g>
					</g>
					<g>
						<g>
							<path fill="#CECECE" d="M259.1,93.8l1.8,1v1.9l-1.8,1l-1.8-1v-1.9L259.1,93.8 M259.1,93.5l-2,1.1v2.2l2,1.1l2-1.1v-2.2         L259.1,93.5L259.1,93.5z"/>
						</g>
					</g>
				</g>
			</g>
		</g>
		<g>
			<g>
				<defs>
					<rect id="SVGID_21_" x="185.9" y="81.9" width="60" height="22.7"/>
				</defs>
				<clipPath id="SVGID_22_">
					<use xlink:href="#SVGID_21_" overflow="visible"/>
				</clipPath>
				<g clip-path="url(#SVGID_22_)">
					<g>
						<g>
							<path fill="#CECECE" d="M186,96.9l1.8,1v1.9l-1.8,1l-1.8-1v-1.9L186,96.9 M186,96.7l-2,1.1v2.2l2,1.1l2-1.1v-2.2L186,96.7         L186,96.7z"/>
						</g>
					</g>
					<g>
						<g>
							<path fill="#CECECE" d="M189.8,96.9l1.8,1v1.9l-1.8,1l-1.8-1v-1.9L189.8,96.9 M189.8,96.7l-2,1.1v2.2l2,1.1l2-1.1v-2.2         L189.8,96.7L189.8,96.7z"/>
						</g>
					</g>
					<g>
						<g>
							<path fill="#CECECE" d="M193.5,96.9l1.8,1v1.9l-1.8,1l-1.8-1v-1.9L193.5,96.9 M193.5,96.7l-2,1.1v2.2l2,1.1l2-1.1v-2.2         L193.5,96.7L193.5,96.7z"/>
						</g>
					</g>
					<g>
						<g>
							<path fill="#CECECE" d="M197.3,96.9l1.8,1v1.9l-1.8,1l-1.8-1v-1.9L197.3,96.9 M197.3,96.7l-2,1.1v2.2l2,1.1l2-1.1v-2.2         L197.3,96.7L197.3,96.7z"/>
						</g>
					</g>
					<g>
						<g>
							<path fill="#CECECE" d="M201,96.9l1.8,1v1.9l-1.8,1l-1.8-1v-1.9L201,96.9 M201,96.7l-2,1.1v2.2l2,1.1l2-1.1v-2.2L201,96.7         L201,96.7z"/>
						</g>
					</g>
					<g>
						<g>
							<path fill="#CECECE" d="M204.8,96.9l1.8,1v1.9l-1.8,1l-1.8-1v-1.9L204.8,96.9 M204.8,96.7l-2,1.1v2.2l2,1.1l2-1.1v-2.2         L204.8,96.7L204.8,96.7z"/>
						</g>
					</g>
					<g>
						<g>
							<path fill="#CECECE" d="M208.5,96.9l1.8,1v1.9l-1.8,1l-1.8-1v-1.9L208.5,96.9 M208.5,96.7l-2,1.1v2.2l2,1.1l2-1.1v-2.2         L208.5,96.7L208.5,96.7z"/>
						</g>
					</g>
					<g>
						<g>
							<path fill="#CECECE" d="M212.3,96.9l1.8,1v1.9l-1.8,1l-1.8-1v-1.9L212.3,96.9 M212.3,96.7l-2,1.1v2.2l2,1.1l2-1.1v-2.2         L212.3,96.7L212.3,96.7z"/>
						</g>
					</g>
					<g>
						<g>
							<path fill="#CECECE" d="M216,96.9l1.8,1v1.9l-1.8,1l-1.8-1v-1.9L216,96.9 M216,96.7l-2,1.1v2.2l2,1.1l2-1.1v-2.2L216,96.7         L216,96.7z"/>
						</g>
					</g>
					<g>
						<g>
							<path fill="#CECECE" d="M219.7,96.9l1.8,1v1.9l-1.8,1l-1.8-1v-1.9L219.7,96.9 M219.7,96.7l-2,1.1v2.2l2,1.1l2-1.1v-2.2         L219.7,96.7L219.7,96.7z"/>
						</g>
					</g>
					<g>
						<g>
							<path fill="#CECECE" d="M223.5,96.9l1.8,1v1.9l-1.8,1l-1.8-1v-1.9L223.5,96.9 M223.5,96.7l-2,1.1v2.2l2,1.1l2-1.1v-2.2         L223.5,96.7L223.5,96.7z"/>
						</g>
					</g>
					<g>
						<g>
							<path fill="#CECECE" d="M227.2,96.9l1.8,1v1.9l-1.8,1l-1.8-1v-1.9L227.2,96.9 M227.2,96.7l-2,1.1v2.2l2,1.1l2-1.1v-2.2         L227.2,96.7L227.2,96.7z"/>
						</g>
					</g>
					<g>
						<g>
							<path fill="#CECECE" d="M231,96.9l1.8,1v1.9l-1.8,1l-1.8-1v-1.9L231,96.9 M231,96.7l-2,1.1v2.2l2,1.1l2-1.1v-2.2L231,96.7         L231,96.7z"/>
						</g>
					</g>
					<g>
						<g>
							<path fill="#CECECE" d="M234.7,96.9l1.8,1v1.9l-1.8,1l-1.8-1v-1.9L234.7,96.9 M234.7,96.7l-2,1.1v2.2l2,1.1l2-1.1v-2.2         L234.7,96.7L234.7,96.7z"/>
						</g>
					</g>
					<g>
						<g>
							<path fill="#CECECE" d="M238.5,96.9l1.8,1v1.9l-1.8,1l-1.8-1v-1.9L238.5,96.9 M238.5,96.7l-2,1.1v2.2l2,1.1l2-1.1v-2.2         L238.5,96.7L238.5,96.7z"/>
						</g>
					</g>
					<g>
						<g>
							<path fill="#CECECE" d="M242.2,96.9l1.8,1v1.9l-1.8,1l-1.8-1v-1.9L242.2,96.9 M242.2,96.7l-2,1.1v2.2l2,1.1l2-1.1v-2.2         L242.2,96.7L242.2,96.7z"/>
						</g>
					</g>
					<g>
						<g>
							<path fill="#CECECE" d="M246,96.9l1.8,1v1.9l-1.8,1l-1.8-1v-1.9L246,96.9 M246,96.7l-2,1.1v2.2l2,1.1l2-1.1v-2.2L246,96.7         L246,96.7z"/>
						</g>
					</g>
					<g>
						<g>
							<path fill="#CECECE" d="M249.7,96.9l1.8,1v1.9l-1.8,1l-1.8-1v-1.9L249.7,96.9 M249.7,96.7l-2,1.1v2.2l2,1.1l2-1.1v-2.2         L249.7,96.7L249.7,96.7z"/>
						</g>
					</g>
					<g>
						<g>
							<path fill="#CECECE" d="M253.5,96.9l1.8,1v1.9l-1.8,1l-1.8-1v-1.9L253.5,96.9 M253.5,96.7l-2,1.1v2.2l2,1.1l2-1.1v-2.2         L253.5,96.7L253.5,96.7z"/>
						</g>
					</g>
					<g>
						<g>
							<path fill="#CECECE" d="M257.2,96.9l1.8,1v1.9l-1.8,1l-1.8-1v-1.9L257.2,96.9 M257.2,96.7l-2,1.1v2.2l2,1.1l2-1.1v-2.2         L257.2,96.7L257.2,96.7z"/>
						</g>
					</g>
				</g>
			</g>
		</g>
		<g>
			<g>
				<defs>
					<rect id="SVGID_23_" x="185.9" y="81.9" width="60" height="22.7"/>
				</defs>
				<clipPath id="SVGID_24_">
					<use xlink:href="#SVGID_23_" overflow="visible"/>
				</clipPath>
				<g clip-path="url(#SVGID_24_)">
					<g>
						<g>
							<path fill="#CECECE" d="M187.9,100.1l1.8,1v1.9l-1.8,1l-1.8-1v-1.9L187.9,100.1 M187.9,99.9l-2,1.1v2.2l2,1.1l2-1.1V101         L187.9,99.9L187.9,99.9z"/>
						</g>
					</g>
					<g>
						<g>
							<path fill="#CECECE" d="M191.6,100.1l1.8,1v1.9l-1.8,1l-1.8-1v-1.9L191.6,100.1 M191.6,99.9l-2,1.1v2.2l2,1.1l2-1.1V101         L191.6,99.9L191.6,99.9z"/>
						</g>
					</g>
					<g>
						<g>
							<path fill="#CECECE" d="M195.4,100.1l1.8,1v1.9l-1.8,1l-1.8-1v-1.9L195.4,100.1 M195.4,99.9l-2,1.1v2.2l2,1.1l2-1.1V101         L195.4,99.9L195.4,99.9z"/>
						</g>
					</g>
					<g>
						<g>
							<path fill="#CECECE" d="M199.1,100.1l1.8,1v1.9l-1.8,1l-1.8-1v-1.9L199.1,100.1 M199.1,99.9l-2,1.1v2.2l2,1.1l2-1.1V101         L199.1,99.9L199.1,99.9z"/>
						</g>
					</g>
					<g>
						<g>
							<path fill="#CECECE" d="M202.9,100.1l1.8,1v1.9l-1.8,1l-1.8-1v-1.9L202.9,100.1 M202.9,99.9l-2,1.1v2.2l2,1.1l2-1.1V101         L202.9,99.9L202.9,99.9z"/>
						</g>
					</g>
					<g>
						<g>
							<path fill="#CECECE" d="M206.6,100.1l1.8,1v1.9l-1.8,1l-1.8-1v-1.9L206.6,100.1 M206.6,99.9l-2,1.1v2.2l2,1.1l2-1.1V101         L206.6,99.9L206.6,99.9z"/>
						</g>
					</g>
					<g>
						<g>
							<path fill="#CECECE" d="M210.4,100.1l1.8,1v1.9l-1.8,1l-1.8-1v-1.9L210.4,100.1 M210.4,99.9l-2,1.1v2.2l2,1.1l2-1.1V101         L210.4,99.9L210.4,99.9z"/>
						</g>
					</g>
					<g>
						<g>
							<path fill="#CECECE" d="M214.1,100.1l1.8,1v1.9l-1.8,1l-1.8-1v-1.9L214.1,100.1 M214.1,99.9l-2,1.1v2.2l2,1.1l2-1.1V101         L214.1,99.9L214.1,99.9z"/>
						</g>
					</g>
					<g>
						<g>
							<path fill="#CECECE" d="M217.9,100.1l1.8,1v1.9l-1.8,1l-1.8-1v-1.9L217.9,100.1 M217.9,99.9l-2,1.1v2.2l2,1.1l2-1.1V101         L217.9,99.9L217.9,99.9z"/>
						</g>
					</g>
					<g>
						<g>
							<path fill="#CECECE" d="M221.6,100.1l1.8,1v1.9l-1.8,1l-1.8-1v-1.9L221.6,100.1 M221.6,99.9l-2,1.1v2.2l2,1.1l2-1.1V101         L221.6,99.9L221.6,99.9z"/>
						</g>
					</g>
					<g>
						<g>
							<path fill="#CECECE" d="M225.4,100.1l1.8,1v1.9l-1.8,1l-1.8-1v-1.9L225.4,100.1 M225.4,99.9l-2,1.1v2.2l2,1.1l2-1.1V101         L225.4,99.9L225.4,99.9z"/>
						</g>
					</g>
					<g>
						<g>
							<path fill="#CECECE" d="M229.1,100.1l1.8,1v1.9l-1.8,1l-1.8-1v-1.9L229.1,100.1 M229.1,99.9l-2,1.1v2.2l2,1.1l2-1.1V101         L229.1,99.9L229.1,99.9z"/>
						</g>
					</g>
					<g>
						<g>
							<path fill="#CECECE" d="M232.9,100.1l1.8,1v1.9l-1.8,1l-1.8-1v-1.9L232.9,100.1 M232.9,99.9l-2,1.1v2.2l2,1.1l2-1.1V101         L232.9,99.9L232.9,99.9z"/>
						</g>
					</g>
					<g>
						<g>
							<path fill="#CECECE" d="M236.6,100.1l1.8,1v1.9l-1.8,1l-1.8-1v-1.9L236.6,100.1 M236.6,99.9l-2,1.1v2.2l2,1.1l2-1.1V101         L236.6,99.9L236.6,99.9z"/>
						</g>
					</g>
					<g>
						<g>
							<path fill="#CECECE" d="M240.4,100.1l1.8,1v1.9l-1.8,1l-1.8-1v-1.9L240.4,100.1 M240.4,99.9l-2,1.1v2.2l2,1.1l2-1.1V101         L240.4,99.9L240.4,99.9z"/>
						</g>
					</g>
					<g>
						<g>
							<path fill="#CECECE" d="M244.1,100.1l1.8,1v1.9l-1.8,1l-1.8-1v-1.9L244.1,100.1 M244.1,99.9l-2,1.1v2.2l2,1.1l2-1.1V101         L244.1,99.9L244.1,99.9z"/>
						</g>
					</g>
					<g>
						<g>
							<path fill="#CECECE" d="M247.8,100.1l1.8,1v1.9l-1.8,1l-1.8-1v-1.9L247.8,100.1 M247.8,99.9l-2,1.1v2.2l2,1.1l2-1.1V101         L247.8,99.9L247.8,99.9z"/>
						</g>
					</g>
					<g>
						<g>
							<path fill="#CECECE" d="M251.6,100.1l1.8,1v1.9l-1.8,1l-1.8-1v-1.9L251.6,100.1 M251.6,99.9l-2,1.1v2.2l2,1.1l2-1.1V101         L251.6,99.9L251.6,99.9z"/>
						</g>
					</g>
					<g>
						<g>
							<path fill="#CECECE" d="M255.3,100.1l1.8,1v1.9l-1.8,1l-1.8-1v-1.9L255.3,100.1 M255.3,99.9l-2,1.1v2.2l2,1.1l2-1.1V101         L255.3,99.9L255.3,99.9z"/>
						</g>
					</g>
					<g>
						<g>
							<path fill="#CECECE" d="M259.1,100.1l1.8,1v1.9l-1.8,1l-1.8-1v-1.9L259.1,100.1 M259.1,99.9l-2,1.1v2.2l2,1.1l2-1.1V101         L259.1,99.9L259.1,99.9z"/>
						</g>
					</g>
				</g>
			</g>
		</g>
	</g>
	<g id="Shadow" opacity="0.102">
		<g>
			<polygon points="93.4,92.8 97.1,99.6 152.2,99.6 155.9,92.8    "/>
		</g>
	</g>
	<rect x="97" y="83.6" fill="#FFFFFF" width="55.2" height="15.8"/>
	<g id="Shadow_2_" opacity="0.102">
		<g>
			<polygon points="276.3,92.8 280,99.6 335.1,99.6 338.8,92.8    "/>
		</g>
	</g>
	<rect x="279.9" y="83.6" fill="#FFFFFF" width="55.2" height="15.8"/>
	<g>
		<g>
			<path fill="#37003C" d="M123.3,92.7h3.2v0.6h-1.3v3.2h-0.6v-3.2h-1.3L123.3,92.7L123.3,92.7z"/>
			<path fill="#37003C" d="M131.1,92.7v0.6h-2.2v1h1.3l-0.5,0.6h-0.8v0.9h2.2v0.6h-2.8v-3.8L131.1,92.7L131.1,92.7z"/>
			<path fill="#37003C" d="M135.5,95.8h-1.7l-0.3,0.6h-0.7l1.9-3.8l1.9,3.8h-0.7L135.5,95.8z M134.1,95.2h1.1l-0.6-1.1L134.1,95.2z"/>
			<path fill="#37003C" d="M138.9,94.2v2.3h-0.6v-3.8l1.9,1.9l1.9-1.9v3.8h-0.6v-2.3l-1.3,1.3L138.9,94.2z"/>
		</g>
		<g>
			
				<linearGradient id="SVGID_25_" gradientUnits="userSpaceOnUse" x1="273.1193" y1="233.0821" x2="272.9255" y2="206.534" gradientTransform="matrix(0.432 0 0 -0.432 0 186.624)">
				<stop offset="0" style="stop-color:#61094B"/>
				<stop offset="1" style="stop-color:#37003C"/>
			</linearGradient>
			<path fill="url(#SVGID_25_)" d="M121.2,91.1c-0.1-0.3-0.3-0.5-0.6-0.7c-0.2-0.2-0.5-0.3-0.9-0.5c-0.4-0.1-0.8-0.2-1.2-0.2h-2.7     l-1.2,1.5h4.1c0.3,0,0.5,0.1,0.7,0.2c0.2,0.1,0.2,0.3,0.2,0.5s-0.1,0.4-0.2,0.5c-0.2,0.1-0.4,0.2-0.7,0.2h-1.1l-1.2,1.5h2.1     c0.5,0,0.9-0.1,1.2-0.2c0.4-0.1,0.7-0.3,0.9-0.4s0.4-0.4,0.6-0.7c0.1-0.3,0.2-0.6,0.2-0.9C121.4,91.7,121.3,91.4,121.2,91.1z"/>
			
				<linearGradient id="SVGID_26_" gradientUnits="userSpaceOnUse" x1="264.3215" y1="233.1463" x2="264.1277" y2="206.5982" gradientTransform="matrix(0.432 0 0 -0.432 0 186.624)">
				<stop offset="0" style="stop-color:#61094B"/>
				<stop offset="1" style="stop-color:#37003C"/>
			</linearGradient>
			<polygon fill="url(#SVGID_26_)" points="115.4,95.1 115.4,95.1 115.4,94.2 115.4,94.2 115.4,94.1 116.6,92.7 113.6,92.7      113.6,92.7 110.6,92.7 110.6,91.3 113.6,91.3 114.3,90.4 114.8,89.8 114.8,89.8 108.8,89.8 108.8,97.2 110.6,94.9 110.6,94.1      113.6,94.1 113.6,94.1 113.6,95.7 113.6,97.2 118.3,97.2 119.5,95.7 115.4,95.7    "/>
			
				<linearGradient id="SVGID_27_" gradientUnits="userSpaceOnUse" x1="265.1423" y1="233.1403" x2="264.9485" y2="206.5922" gradientTransform="matrix(0.432 0 0 -0.432 0 186.624)">
				<stop offset="0" style="stop-color:#61094B"/>
				<stop offset="1" style="stop-color:#37003C"/>
			</linearGradient>
			<polygon fill="url(#SVGID_27_)" points="116.5,89 118.1,86.8 116,87.8 114.5,86 113,87.7 110.9,86.8 112.6,89    "/>
		</g>
	</g>
	<g>
		<path fill="#37003C" d="M305.9,92.7h3.2v0.6h-1.3v3.2h-0.6v-3.2h-1.3L305.9,92.7L305.9,92.7z"/>
		<path fill="#37003C" d="M313.7,92.7v0.6h-2.2v1h1.3l-0.5,0.6h-0.8v0.9h2.2v0.6h-2.8v-3.8L313.7,92.7L313.7,92.7z"/>
		<path fill="#37003C" d="M318.1,95.8h-1.7l-0.3,0.6h-0.7l1.9-3.8l1.9,3.8h-0.7L318.1,95.8z M316.7,95.2h1.1l-0.6-1.1L316.7,95.2z"/>
		<path fill="#37003C" d="M321.5,94.2v2.3h-0.6v-3.8l1.9,1.9l1.9-1.9v3.8H324v-2.3l-1.3,1.3L321.5,94.2z"/>
	</g>
	<g>
		
			<linearGradient id="SVGID_28_" gradientUnits="userSpaceOnUse" x1="695.7961" y1="233.0821" x2="695.6023" y2="206.534" gradientTransform="matrix(0.432 0 0 -0.432 0 186.624)">
			<stop offset="0" style="stop-color:#61094B"/>
			<stop offset="1" style="stop-color:#37003C"/>
		</linearGradient>
		<path fill="url(#SVGID_28_)" d="M303.8,91.1c-0.1-0.3-0.3-0.5-0.6-0.7s-0.5-0.3-0.9-0.5c-0.4-0.1-0.8-0.2-1.2-0.2h-2.7l-1.2,1.5    h4.1c0.3,0,0.5,0.1,0.7,0.2c0.2,0.1,0.2,0.3,0.2,0.5s-0.1,0.4-0.2,0.5c-0.2,0.1-0.4,0.2-0.7,0.2h-1.1l-1.2,1.5h2.1    c0.5,0,0.9-0.1,1.2-0.2c0.4-0.1,0.7-0.3,0.9-0.4s0.4-0.4,0.6-0.7c0.1-0.3,0.2-0.6,0.2-0.9C304,91.7,303.9,91.4,303.8,91.1z"/>
		
			<linearGradient id="SVGID_29_" gradientUnits="userSpaceOnUse" x1="686.9982" y1="233.1463" x2="686.8045" y2="206.5982" gradientTransform="matrix(0.432 0 0 -0.432 0 186.624)">
			<stop offset="0" style="stop-color:#61094B"/>
			<stop offset="1" style="stop-color:#37003C"/>
		</linearGradient>
		<polygon fill="url(#SVGID_29_)" points="298,95.1 298,95.1 298,94.2 298,94.2 298,94.1 299.2,92.7 296.2,92.7 296.2,92.7     293.2,92.7 293.2,91.3 296.2,91.3 296.9,90.4 297.4,89.8 297.4,89.8 291.4,89.8 291.4,97.2 293.2,94.9 293.2,94.1 296.2,94.1     296.2,94.1 296.2,95.7 296.2,97.2 300.9,97.2 302.1,95.7 298,95.7   "/>
		
			<linearGradient id="SVGID_30_" gradientUnits="userSpaceOnUse" x1="687.8192" y1="233.1403" x2="687.6254" y2="206.5922" gradientTransform="matrix(0.432 0 0 -0.432 0 186.624)">
			<stop offset="0" style="stop-color:#61094B"/>
			<stop offset="1" style="stop-color:#37003C"/>
		</linearGradient>
		<polygon fill="url(#SVGID_30_)" points="299.1,89 300.7,86.8 298.6,87.8 297.1,86 295.6,87.7 293.5,86.8 295.2,89   "/>
	</g>
	<g>
		<polygon fill="#FFFFFF" points="246.5,103.9 245.5,103.9 245.5,82.4 186.4,82.4 186.4,103.9 185.4,103.9 185.4,81.4 246.5,81.4       "/>
	</g>
</g>
</svg>